<svg xmlns="http://www.w3.org/2000/svg" fill="none" viewBox="0 0 145 23" height="23" width="145">
<g clip-path="url(#clip0_337_2250)">
<path fill="black" d="M11.6139 0C5.1682 0 0 5.13033 0 11.5288C0 17.8697 5.1682 23.0576 11.6139 23.0576C18.0016 23.0576 23.2279 17.9273 23.2279 11.5288C23.1698 5.13033 18.0016 0 11.6139 0ZM19.5114 15.8521C19.5114 17.812 17.9435 19.3684 15.9692 19.3684H7.20064C5.22627 19.3684 3.65839 17.812 3.65839 15.8521V7.14787C3.65839 5.18797 5.22627 3.63158 7.20064 3.63158H15.9692C17.9435 3.63158 19.5114 5.18797 19.5114 7.14787V15.8521Z"/>
<path fill="black" d="M46.1074 0H30.022C28.0477 0 26.4798 1.55639 26.4798 3.51629V19.4837C26.4798 21.4436 28.0477 23 30.022 23H46.1074C48.0817 23 49.6496 21.4436 49.6496 19.4837V3.51629C49.6496 1.55639 48.0817 0 46.1074 0ZM38.0937 19.3684C33.7385 19.3684 30.1963 15.8521 30.1963 11.5288C30.1963 7.20551 33.7385 3.68922 38.0937 3.68922C42.449 3.68922 45.9912 7.20551 45.9912 11.5288C45.9912 15.8521 42.449 19.3684 38.0937 19.3684Z"/>
<path fill="black" d="M59.5795 19.3684V3.63159H65.6187C69.219 3.63159 71.3095 5.41856 71.3095 8.53134C71.3095 11.6441 70.3224 12.1629 68.4641 12.9123L71.4838 19.3684H68.4641L65.7929 13.4887H62.4249V19.3684H59.6375H59.5795ZM62.3668 11.0677H65.6187C67.3608 11.0677 68.4061 10.1454 68.4061 8.53134C68.4061 6.91731 67.3608 6.11029 65.6187 6.11029H62.3668V11.0677Z"/>
<path fill="black" d="M73.4001 5.01501C73.4001 4.15035 74.0969 3.45862 75.026 3.45862C75.9551 3.45862 76.5939 4.15035 76.5939 5.01501C76.5939 5.87967 75.8971 6.62904 75.026 6.62904C74.155 6.62904 73.4001 5.93731 73.4001 5.01501ZM73.6904 8.76188H76.3036V19.3684H73.6904V8.76188Z"/>
<path fill="black" d="M77.8715 8.7619H80.6588L82.517 13.6617C82.9816 14.9298 83.33 16.0251 83.4461 16.6015C83.6204 15.9674 83.9688 14.8145 84.4333 13.6617L86.4077 8.7619H89.137L84.6656 19.3684H82.0525L77.8134 8.7619H77.8715Z"/>
<path fill="black" d="M89.5435 14.0651C89.5435 10.7218 91.7501 8.41602 94.8859 8.41602C98.0216 8.41602 100.112 10.5488 100.112 13.8346V14.6416H92.0405C92.2147 16.5438 93.2599 17.4661 95.002 17.4661C96.7441 17.4661 97.3829 16.8897 97.7313 15.9097H100.17C99.7057 18.2155 97.7894 19.599 95.002 19.599C92.2147 19.599 89.6015 17.2932 89.6015 14.0075L89.5435 14.0651ZM92.0985 12.9699H97.4409C97.4409 11.5288 96.3957 10.5488 94.8278 10.5488C93.2599 10.5488 92.3308 11.4135 92.0405 12.9699H92.0985Z"/>
<path fill="black" d="M108.881 11.1253H107.893C105.977 11.1253 104.816 12.1629 104.816 14.1804V19.3108H102.203V8.76189H104.7L104.874 10.3183C105.338 9.28068 106.326 8.53131 107.777 8.53131C109.229 8.53131 108.532 8.53131 108.939 8.70424V11.1253H108.881Z"/>
<path fill="black" d="M111.61 8.7619V7.49373C111.61 4.61153 113.062 3.401 115.268 3.401C117.475 3.401 116.197 3.401 116.662 3.51629V5.76441H115.733C114.513 5.76441 114.281 6.45614 114.281 7.49373V8.7619H118.52V3.401H121.133V19.3684H118.52V10.9524H114.281V19.3684H111.668V10.9524H110.158V8.7619H111.668H111.61Z"/>
<path fill="black" d="M123.282 14.0651C123.282 10.7218 125.489 8.41602 128.624 8.41602C131.76 8.41602 133.851 10.5488 133.851 13.8346V14.6416H125.779C125.953 16.5438 126.998 17.4661 128.74 17.4661C130.483 17.4661 131.121 16.8897 131.47 15.9097H133.909C133.444 18.2155 131.528 19.599 128.74 19.599C125.953 19.599 123.34 17.2932 123.34 14.0075L123.282 14.0651ZM125.837 12.9699H131.179C131.179 11.5288 130.134 10.5488 128.566 10.5488C126.998 10.5488 126.069 11.4135 125.779 12.9699H125.837Z"/>
<path fill="black" d="M134.315 19.3684L137.974 14.1804L134.315 8.7619H137.393L139.774 12.3935L142.038 8.7619H145L141.342 14.1228L144.884 19.3684H141.864L139.6 15.8521L137.335 19.3684H134.315Z"/>
</g>
<defs>
<clipPath id="clip0_337_2250">
<rect fill="white" height="23" width="145"/>
</clipPath>
</defs>
</svg>